<svg id="Layer_1" data-name="Layer 1" xmlns="http://www.w3.org/2000/svg" xmlns:xlink="http://www.w3.org/1999/xlink" viewBox="0 0 815.17 323.25"><defs><style>.cls-1{opacity:0.66;font-size:160.47px;font-family:Pristina-Regular, Pristina;}.cls-1,.cls-6{fill:#1b75bc;}.cls-2{opacity:0.73;}.cls-3{fill:url(#linear-gradient);}.cls-4{fill:url(#linear-gradient-2);}.cls-5{fill:url(#Fading_Sky);}</style><linearGradient id="linear-gradient" x1="17.83" y1="110.43" x2="180.47" y2="110.43" gradientUnits="userSpaceOnUse"><stop offset="0" stop-color="#1b75bc"/><stop offset="1" stop-color="#2484c6" stop-opacity="0"/></linearGradient><linearGradient id="linear-gradient-2" x1="18.36" y1="128.86" x2="181" y2="128.86" gradientUnits="userSpaceOnUse"><stop offset="0" stop-color="#2484c6"/><stop offset="1" stop-color="#2484c6" stop-opacity="0"/></linearGradient><linearGradient id="Fading_Sky" x1="275.04" y1="165.09" x2="151" y2="165.09" gradientTransform="matrix(-1, 0, 0, 1, 312.37, 0)" xlink:href="#linear-gradient-2"/></defs><title>Logo-Balloon-Cropped</title><text class="cls-1" transform="translate(204.81 158.73) scale(1.18)">s</text><text class="cls-1" transform="translate(250.86 158.73)">wayaway</text><g class="cls-2"><path class="cls-3" d="M17.83,85.29c0,2,.1,4,.27,6q1.62,9.24,4.07,18.2a203.73,203.73,0,0,0,13,34.7,217.86,217.86,0,0,0,49.67,66.35h29a217.61,217.61,0,0,0,49.67-66.35,202,202,0,0,0,14.67-41.34c.06-.23.11-.48.17-.72a.08.08,0,0,0,0-.06c.27-1.17.54-2.35.8-3.53,0,0,0-.07,0-.1a.1.1,0,0,0,0-.06s0-.06,0-.09A69.71,69.71,0,0,0,177,63.68C167,32.8,135.92,10.3,99.16,10.3s-68,22.6-78,53.6A69.66,69.66,0,0,0,17.83,85.29Z" transform="translate(-17.83 12.64)"/></g><path class="cls-4" d="M18.36,85.29c0,1.67.07,3.35.19,5a19.72,19.72,0,0,0,.27,2.06q1.57,8.71,3.89,17.17a203.73,203.73,0,0,0,13,34.7,216.7,216.7,0,0,0,43.06,60.06,22.61,22.61,0,0,0,15.89,6.29h10.5A22.61,22.61,0,0,0,121,204.27a216.36,216.36,0,0,0,43.06-60.06,202,202,0,0,0,14.67-41.34c.06-.23.11-.48.17-.72a.08.08,0,0,0,0-.06c.27-1.17.54-2.35.8-3.53,0,0,0-.07,0-.1a.1.1,0,0,0,0-.06s0-.06,0-.09a70,70,0,0,0,.52-22.94A20.52,20.52,0,0,0,167,59.29a191.44,191.44,0,0,0-134.62.18A20.5,20.5,0,0,0,19,75.55,69.76,69.76,0,0,0,18.36,85.29Z" transform="translate(-17.83 12.64)"/><path class="cls-5" d="M38.27,149.45A218.29,218.29,0,0,0,82,207a9.81,9.81,0,0,0,6.73,2.58h21.15a9.81,9.81,0,0,0,6.73-2.58,218.07,218.07,0,0,0,43.78-57.55,8.29,8.29,0,0,0-2.75-10.7,101.13,101.13,0,0,0-58.33-18.15A101.13,101.13,0,0,0,41,138.75,8.29,8.29,0,0,0,38.27,149.45Z" transform="translate(-17.83 12.64)"/><rect class="cls-6" x="87.62" y="217.5" width="26.21" height="15.19" transform="translate(183.62 462.83) rotate(-180)"/></svg>