<svg id="Layer_1" data-name="Layer 1" xmlns="http://www.w3.org/2000/svg" xmlns:xlink="http://www.w3.org/1999/xlink" viewBox="0 0 695.91 317.09"><defs><style>.cls-1{font-size:80px;font-family:AdobeArabic-Regular, Adobe Arabic;opacity:0.66;}.cls-1,.cls-13{fill:#1b75bc;}.cls-2{letter-spacing:0.19em;}.cls-3{letter-spacing:0.18em;}.cls-4{letter-spacing:0.16em;}.cls-5{letter-spacing:0.17em;}.cls-6{letter-spacing:0.15em;}.cls-7{letter-spacing:0.19em;}.cls-8{letter-spacing:0.16em;}.cls-9{opacity:0.73;}.cls-10{fill:url(#linear-gradient);}.cls-11{fill:url(#linear-gradient-2);}.cls-12{fill:url(#Fading_Sky);}</style><linearGradient id="linear-gradient" x1="6.23" y1="62.54" x2="97.23" y2="62.54" gradientUnits="userSpaceOnUse"><stop offset="0" stop-color="#1b75bc"/><stop offset="1" stop-color="#2484c6" stop-opacity="0"/></linearGradient><linearGradient id="linear-gradient-2" x1="6.53" y1="72.85" x2="97.53" y2="72.85" gradientUnits="userSpaceOnUse"><stop offset="0" stop-color="#2484c6"/><stop offset="1" stop-color="#2484c6" stop-opacity="0"/></linearGradient><linearGradient id="Fading_Sky" x1="113.85" y1="93.12" x2="44.45" y2="93.12" gradientTransform="matrix(-1, 0, 0, 1, 130.99, 0)" xlink:href="#linear-gradient-2"/></defs><title>Logo-Balloon-RefinedFonts</title><text class="cls-1" transform="translate(121.15 79.78) scale(1.15 1.18)"><tspan class="cls-2">s</tspan><tspan class="cls-3" x="36.85" y="0">w</tspan><tspan class="cls-4" x="91.49" y="0">a</tspan><tspan class="cls-5" x="129.71" y="0">y</tspan><tspan class="cls-6" x="170.42" y="0">a</tspan><tspan class="cls-7" x="208.4" y="0.85">w</tspan><tspan class="cls-8" x="263.44" y="0.43">a</tspan><tspan x="301.98" y="0">y</tspan></text><g class="cls-9"><path class="cls-10" d="M6.23,48.47c0,1.13.05,2.26.15,3.37Q7.29,57,8.66,62a114,114,0,0,0,7.26,19.41,121.9,121.9,0,0,0,27.79,37.12H60A121.76,121.76,0,0,0,87.76,81.44,113,113,0,0,0,96,58.31c0-.13.06-.27.1-.4a0,0,0,0,0,0,0c.15-.66.3-1.31.44-2,0,0,0,0,0-.06a.06.06,0,0,0,0,0s0,0,0,0a39,39,0,0,0-1.24-19.37C89.68,19.1,72.3,6.51,51.73,6.51s-38,12.64-43.63,30A39,39,0,0,0,6.23,48.47Z" transform="translate(-6.23 -6.51)"/></g><path class="cls-11" d="M6.53,48.47c0,.94,0,1.87.1,2.79a11,11,0,0,0,.15,1.15Q7.66,57.29,9,62a114,114,0,0,0,7.26,19.41A121.25,121.25,0,0,0,40.31,115a12.65,12.65,0,0,0,8.89,3.52h5.88A12.65,12.65,0,0,0,64,115a121.06,121.06,0,0,0,24.09-33.6,113,113,0,0,0,8.21-23.13c0-.13.06-.27.1-.4a0,0,0,0,0,0,0c.15-.66.3-1.31.44-2,0,0,0,0,0-.06a.06.06,0,0,0,0,0s0,0,0,0a39.16,39.16,0,0,0,.29-12.84,11.48,11.48,0,0,0-7.46-9,107.11,107.11,0,0,0-75.33.1,11.47,11.47,0,0,0-7.44,9A39,39,0,0,0,6.53,48.47Z" transform="translate(-6.23 -6.51)"/><path class="cls-12" d="M17.67,84.37a122.14,122.14,0,0,0,24.49,32.2A5.49,5.49,0,0,0,45.92,118H57.76a5.49,5.49,0,0,0,3.76-1.44A122,122,0,0,0,86,84.37a4.64,4.64,0,0,0-1.54-6A56.58,56.58,0,0,0,51.84,68.23,56.58,56.58,0,0,0,19.21,78.38,4.64,4.64,0,0,0,17.67,84.37Z" transform="translate(-6.23 -6.51)"/><rect class="cls-13" x="45.23" y="123.14" width="14.67" height="8.5" transform="translate(98.9 248.27) rotate(-180)"/></svg>